<?xml version="1.0" standalone="no"?>
<!DOCTYPE svg PUBLIC "-//W3C//DTD SVG 20010904//EN"
 "http://www.w3.org/TR/2001/REC-SVG-20010904/DTD/svg10.dtd">
<svg version="1.0" xmlns="http://www.w3.org/2000/svg"
 width="1409.000000pt" height="1409.000000pt" viewBox="0 0 1409.000000 1409.000000"
 preserveAspectRatio="xMidYMid meet">
<metadata>
Created by potrace 1.14, written by Peter Selinger 2001-2017
</metadata>
<g transform="translate(0.000000,1409.000000) scale(0.100000,-0.100000)"
fill="#000000" stroke="none">
<path d="M5887 13044 c-1 -1 -74 -4 -162 -8 -88 -3 -171 -8 -185 -10 -14 -2
-62 -7 -106 -11 -88 -7 -120 -10 -199 -21 -72 -10 -75 -11 -130 -18 -225 -31
-800 -164 -915 -213 -8 -3 -20 -7 -27 -9 -21 -4 -118 -36 -128 -43 -5 -3 -17
-6 -25 -8 -8 -1 -30 -9 -50 -17 -19 -8 -71 -28 -115 -45 -44 -16 -118 -46
-165 -66 -47 -20 -103 -44 -125 -53 -122 -51 -474 -235 -630 -329 -249 -150
-552 -360 -662 -458 -6 -5 -24 -20 -40 -32 -182 -142 -535 -480 -718 -687
-111 -125 -284 -344 -379 -478 -133 -189 -186 -267 -186 -275 0 -2 -13 -23
-29 -47 -102 -147 -395 -710 -426 -816 -1 -3 -9 -23 -19 -45 -40 -90 -171
-447 -180 -490 -2 -5 -13 -41 -25 -80 -46 -144 -144 -544 -156 -637 -2 -15 -6
-35 -9 -45 -3 -10 -8 -43 -11 -73 -4 -30 -8 -57 -10 -60 -3 -5 -9 -42 -20
-135 -3 -27 -8 -66 -10 -85 -30 -239 -39 -417 -39 -720 1 -240 7 -424 19 -515
3 -22 7 -62 10 -90 6 -80 15 -156 25 -215 8 -49 17 -108 25 -165 10 -70 64
-335 76 -371 5 -17 11 -40 13 -50 25 -120 138 -501 173 -584 3 -8 7 -17 7 -20
1 -6 35 -98 46 -125 145 -361 262 -606 415 -867 19 -32 35 -63 35 -69 0 -5 4
-9 8 -9 5 0 14 -12 21 -26 16 -36 187 -296 250 -381 28 -38 65 -88 83 -113 18
-25 35 -47 38 -50 3 -3 21 -25 40 -50 160 -206 422 -493 615 -670 133 -122
172 -157 219 -195 27 -22 60 -50 75 -63 54 -48 370 -282 471 -349 593 -395
1298 -700 1970 -853 52 -11 113 -25 135 -30 42 -10 228 -44 305 -55 25 -4 52
-9 60 -10 13 -2 65 -9 170 -21 14 -1 52 -6 85 -9 33 -4 73 -9 90 -11 196 -23
945 -23 1035 1 8 2 51 6 95 10 44 4 89 8 100 10 11 2 43 7 70 10 43 5 98 13
274 41 18 3 43 8 55 10 11 3 53 11 91 19 39 8 102 21 140 30 39 9 78 18 87 20
118 24 622 183 736 233 21 8 42 17 47 18 15 3 229 96 320 139 44 20 89 41 100
46 51 22 332 173 346 185 8 8 18 14 21 14 19 0 310 186 478 306 103 73 357
268 370 283 3 4 37 33 75 66 186 159 455 428 602 601 77 91 79 92 137 98 89 9
280 40 366 60 140 32 213 50 255 63 44 13 209 67 243 78 7 3 14 5 17 5 3 0 37
14 77 31 40 16 82 34 93 38 107 41 357 168 499 254 278 167 496 337 731 572
368 367 614 730 840 1240 72 162 187 531 219 705 3 14 9 48 15 75 5 28 12 70
16 95 4 24 8 47 10 50 1 3 6 36 10 73 3 37 8 77 10 88 25 126 24 652 0 834 -3
17 -9 68 -15 115 -11 78 -20 133 -35 200 -3 14 -8 39 -11 56 -4 26 -32 143
-50 209 -3 11 -7 29 -9 40 -12 54 -117 361 -144 420 -5 11 -18 40 -27 65 -43
106 -206 415 -284 538 -220 345 -503 667 -804 916 -88 73 -226 176 -235 176
-5 0 -11 4 -13 8 -6 17 -260 178 -338 215 -14 6 -27 14 -30 17 -18 21 -453
219 -519 236 -9 2 -61 19 -116 38 -55 19 -136 44 -180 56 -44 12 -102 27 -130
35 -27 7 -63 15 -80 18 -16 3 -64 12 -105 20 -41 9 -97 18 -125 22 -27 3 -59
8 -70 10 -11 2 -42 7 -70 10 -70 8 -76 11 -114 58 -137 171 -469 502 -686 682
-33 28 -62 52 -65 55 -3 3 -25 21 -50 40 -25 19 -47 37 -50 41 -13 16 -270
201 -395 284 -240 158 -460 284 -718 408 -77 37 -141 67 -143 67 -2 0 -27 11
-56 24 -62 28 -306 126 -328 132 -8 2 -53 17 -100 34 -180 66 -616 186 -740
205 -24 4 -48 9 -52 11 -4 3 -20 7 -35 9 -16 2 -80 13 -143 24 -175 29 -277
43 -420 56 -36 4 -83 8 -105 11 -84 8 -581 24 -588 18z m553 -668 c25 -3 70
-8 100 -11 51 -5 170 -20 250 -31 361 -50 820 -174 1194 -324 245 -98 450
-198 696 -338 157 -90 500 -321 596 -401 17 -14 48 -39 69 -56 48 -37 166
-137 220 -187 114 -104 160 -148 155 -149 -3 -1 -16 -3 -30 -4 -21 -3 -129
-21 -235 -40 -80 -15 -292 -70 -390 -103 -60 -20 -114 -37 -120 -38 -18 -4
-194 -73 -268 -105 -76 -33 -133 -60 -207 -101 l-46 -24 -89 59 c-467 309
-982 524 -1508 627 -102 21 -127 25 -192 34 -22 4 -51 8 -65 11 -14 2 -52 7
-85 10 -33 4 -76 9 -95 11 -185 21 -631 20 -795 -1 -16 -3 -57 -7 -90 -10 -33
-3 -123 -17 -200 -30 -185 -33 -197 -35 -217 -41 -9 -3 -26 -7 -37 -9 -123
-24 -501 -144 -621 -197 -36 -16 -67 -30 -70 -30 -27 -3 -288 -131 -420 -206
-139 -79 -318 -195 -420 -271 -41 -30 -79 -59 -85 -63 -121 -89 -398 -344
-529 -488 -96 -107 -108 -121 -187 -220 -356 -450 -611 -954 -759 -1498 -40
-149 -82 -339 -95 -432 -1 -8 -8 -53 -14 -100 -7 -47 -14 -98 -17 -115 -25
-180 -25 -776 0 -911 2 -10 7 -44 10 -74 11 -89 15 -123 21 -150 2 -14 7 -38
10 -55 67 -412 247 -925 447 -1274 26 -46 48 -86 48 -89 0 -2 33 -56 72 -119
40 -62 78 -121 83 -131 6 -9 12 -19 15 -22 3 -3 28 -36 55 -75 181 -259 516
-620 720 -776 17 -13 32 -26 35 -29 8 -10 169 -132 230 -175 171 -120 335
-219 535 -320 88 -45 165 -83 170 -85 6 -1 35 -13 65 -27 259 -115 633 -224
945 -277 72 -13 113 -19 210 -31 40 -6 135 -15 215 -21 151 -12 535 -6 676 11
16 1 58 6 94 10 71 7 98 11 180 25 30 5 70 12 88 15 68 11 181 37 287 65 206
54 230 62 490 157 150 55 438 197 605 298 52 32 111 67 130 78 19 12 37 24 40
27 11 12 101 70 109 70 4 0 43 -18 87 -39 205 -102 385 -173 614 -241 41 -12
95 -28 120 -36 63 -19 387 -83 438 -86 23 -2 42 -6 42 -9 0 -6 -142 -138 -225
-209 -27 -23 -61 -52 -75 -64 -376 -321 -951 -664 -1425 -849 -77 -30 -149
-58 -160 -62 -11 -4 -24 -9 -30 -11 -5 -2 -37 -13 -70 -24 -52 -19 -292 -94
-335 -105 -49 -12 -246 -59 -305 -71 -96 -21 -94 -21 -145 -29 -25 -4 -54 -9
-65 -11 -86 -18 -316 -45 -510 -61 -189 -15 -745 -8 -885 12 -19 3 -62 7 -95
10 -33 3 -71 8 -85 10 -14 3 -45 7 -69 10 -23 3 -57 8 -75 11 -17 3 -42 7 -56
9 -101 15 -286 55 -420 90 -52 14 -106 28 -120 31 -14 3 -56 15 -95 27 -38 12
-72 22 -75 22 -3 1 -12 4 -20 8 -8 3 -53 18 -100 33 -233 74 -660 264 -876
389 -53 30 -97 55 -100 55 -10 0 -294 185 -404 264 -323 231 -637 512 -880
786 -36 40 -70 78 -75 84 -35 36 -218 272 -301 388 -240 335 -451 720 -605
1108 -41 104 -137 371 -144 400 -1 8 -17 62 -33 120 -61 207 -120 480 -147
675 -2 17 -8 62 -14 101 -6 39 -13 104 -16 145 -4 41 -8 81 -10 89 -7 25 -18
308 -18 450 0 125 10 377 18 460 2 19 6 67 10 105 3 39 8 81 10 95 2 14 7 45
10 70 3 25 7 56 10 70 3 14 8 45 11 70 9 78 63 329 105 487 146 562 385 1100
704 1583 90 136 251 360 310 429 140 167 245 281 370 406 298 298 515 476 850
696 66 43 125 82 130 86 6 5 21 14 35 21 14 7 52 29 85 48 227 136 580 302
840 396 61 22 117 42 125 45 8 3 20 7 25 9 6 1 48 15 95 30 47 15 90 28 95 30
6 1 37 9 70 19 110 30 130 36 155 41 14 3 61 14 105 24 44 11 94 21 110 24 17
3 41 8 55 11 54 11 143 26 173 30 18 2 48 7 67 10 19 3 51 8 70 10 267 35 399
42 750 39 190 -2 365 -5 390 -8z m-120 -1809 c19 -3 62 -8 95 -12 33 -3 87
-10 120 -15 56 -9 72 -12 135 -25 14 -2 36 -7 50 -9 47 -8 269 -66 352 -92
188 -59 489 -190 673 -294 83 -47 84 -39 -13 -120 -181 -153 -376 -351 -502
-510 -29 -36 -60 -75 -71 -88 -114 -135 -309 -449 -418 -675 -158 -329 -288
-737 -337 -1067 -3 -19 -7 -46 -9 -60 -3 -14 -7 -50 -10 -80 -3 -30 -8 -68
-10 -85 -18 -127 -24 -460 -11 -640 15 -214 17 -228 62 -490 23 -129 119 -481
154 -560 5 -11 29 -73 54 -137 25 -65 82 -191 126 -280 86 -172 92 -182 179
-322 54 -85 63 -99 106 -162 35 -52 128 -179 135 -184 3 -3 26 -30 49 -60 126
-161 357 -392 544 -544 l47 -39 -36 -25 c-35 -24 -278 -147 -374 -190 -215
-95 -557 -199 -785 -237 -23 -4 -144 -22 -195 -30 -191 -27 -672 -27 -854 0
-11 2 -59 9 -106 16 -69 10 -215 39 -325 64 -317 73 -757 263 -1050 453 -68
44 -275 191 -285 202 -3 3 -30 25 -60 50 -188 153 -408 381 -563 585 -154 202
-328 497 -420 711 -45 107 -98 242 -109 279 -15 51 -14 47 -21 65 -31 73 -121
462 -132 570 -4 36 -8 67 -10 70 -3 5 -11 88 -21 205 -6 78 -6 403 0 480 8 90
17 190 21 214 3 13 7 45 11 70 4 25 8 55 11 66 2 11 6 35 9 54 2 18 13 74 25
123 17 79 30 129 71 268 120 414 375 882 672 1237 122 144 320 342 451 449
352 287 720 491 1127 627 94 32 266 82 316 92 9 2 37 8 62 14 59 13 86 18 200
37 103 17 126 20 240 29 41 4 76 8 78 10 5 5 514 -3 552 -8z m4022 -398 c36
-48 67 -90 69 -95 2 -5 39 -62 82 -126 42 -65 77 -122 77 -128 0 -5 5 -10 10
-10 6 0 10 -4 10 -9 0 -4 22 -46 50 -92 52 -89 219 -417 259 -509 182 -422
303 -826 375 -1255 25 -146 29 -177 41 -280 3 -27 7 -66 10 -85 27 -221 27
-926 -1 -1073 -2 -10 -6 -48 -10 -85 -3 -36 -7 -73 -9 -82 -1 -8 -6 -35 -10
-60 -3 -25 -9 -58 -12 -75 -2 -16 -6 -43 -9 -60 -2 -16 -11 -64 -19 -105 -8
-41 -17 -84 -19 -95 -63 -311 -188 -703 -319 -1005 -51 -119 -199 -419 -236
-480 -11 -19 -24 -42 -28 -50 -13 -28 -121 -205 -177 -290 -74 -113 -72 -111
-141 -203 l-60 -81 -110 3 c-134 3 -196 7 -261 15 -27 3 -71 8 -99 11 -27 3
-77 10 -110 16 -33 6 -71 12 -85 15 -114 18 -351 85 -499 141 -158 58 -152 45
-59 143 210 221 423 506 576 772 57 99 202 380 202 391 0 3 13 34 29 69 38 83
111 285 156 434 187 614 227 1293 115 1924 -6 30 -13 69 -15 85 -16 86 -91
371 -129 487 -119 363 -288 710 -499 1028 -39 58 -81 119 -94 135 -13 17 -27
35 -31 40 -95 130 -234 293 -354 415 -32 33 -35 40 -23 50 8 7 15 9 15 5 0 -4
6 -3 13 3 21 17 300 112 417 141 129 32 317 67 415 76 118 12 160 16 161 18 1
1 63 2 137 2 l134 0 65 -86z m986 -110 c444 -165 824 -409 1153 -738 149 -149
221 -230 299 -336 178 -239 312 -475 413 -726 46 -112 95 -248 102 -279 1 -8
11 -42 21 -75 10 -33 19 -64 20 -70 9 -39 36 -164 39 -180 14 -76 35 -209 39
-255 3 -30 8 -82 12 -114 13 -126 7 -441 -11 -591 -18 -150 -26 -199 -44 -275
-5 -25 -12 -56 -15 -70 -11 -61 -28 -125 -61 -236 -172 -566 -507 -1087 -955
-1483 -96 -85 -415 -321 -434 -321 -2 0 -34 -18 -70 -40 -92 -56 -241 -131
-369 -184 -59 -26 -110 -46 -112 -46 -2 0 -16 -5 -32 -12 -15 -6 -32 -12 -38
-14 -5 -1 -36 -12 -68 -23 -32 -11 -56 -17 -54 -13 120 205 244 446 322 622
25 58 50 114 55 125 62 133 213 575 256 745 2 8 15 58 28 110 14 52 27 106 29
120 3 14 10 43 15 65 6 22 14 56 17 75 3 19 12 67 20 105 17 86 32 176 40 233
3 23 7 60 10 82 9 63 12 91 20 170 4 41 9 88 10 104 25 204 24 909 0 1035 -2
10 -6 54 -10 97 -4 43 -9 86 -10 95 -2 9 -6 38 -9 65 -4 27 -8 63 -10 79 -6
39 -24 153 -31 185 -3 14 -7 39 -10 55 -8 56 -66 309 -101 445 -35 134 -166
538 -200 615 -10 22 -18 45 -20 51 -1 5 -13 36 -28 67 -14 32 -26 60 -26 63 0
22 -208 443 -291 591 -38 67 -69 125 -69 128 0 11 26 3 158 -46z m-2818 -527
c69 -70 146 -151 170 -181 25 -29 50 -59 57 -66 27 -28 201 -269 248 -342 87
-136 186 -322 255 -477 44 -99 146 -375 142 -383 -1 -2 5 -20 12 -41 23 -65
76 -289 92 -391 3 -18 7 -42 9 -51 3 -17 10 -65 20 -145 26 -204 26 -690 0
-825 -3 -14 -7 -45 -10 -70 -4 -39 -16 -115 -20 -130 -1 -3 -5 -27 -10 -55 -5
-27 -10 -52 -10 -55 -9 -32 -17 -66 -31 -125 -8 -38 -20 -83 -25 -100 -64
-220 -148 -435 -241 -620 -72 -145 -176 -327 -190 -333 -4 -2 -8 -7 -8 -12 0
-15 -172 -256 -238 -332 -15 -18 -45 -52 -66 -77 -22 -26 -97 -103 -166 -173
l-126 -127 -95 71 c-265 201 -536 486 -717 754 -111 166 -228 382 -297 549
-20 50 -41 99 -45 110 -5 11 -16 43 -25 70 -10 28 -20 57 -23 65 -3 8 -6 17
-7 20 -1 3 -4 12 -8 20 -11 30 -76 286 -87 345 -16 86 -18 95 -25 148 -4 27
-8 58 -11 70 -26 135 -25 668 1 806 1 9 6 36 9 61 16 116 52 282 87 403 16 56
31 107 32 114 2 7 6 16 10 19 4 4 7 14 7 21 0 21 76 214 131 331 27 56 49 106
50 110 1 4 10 19 20 34 10 14 19 29 19 32 0 16 208 346 230 366 3 3 28 34 55
70 89 119 257 299 396 425 103 94 274 225 293 225 6 0 67 -58 136 -128z"/>
</g>
</svg>
